<svg id="SvgjsSvg1012" width="288" height="288" xmlns="http://www.w3.org/2000/svg" version="1.1" xmlns:xlink="http://www.w3.org/1999/xlink" xmlns:svgjs="http://svgjs.com/svgjs"><defs id="SvgjsDefs1013"></defs><g id="SvgjsG1014"><svg xmlns="http://www.w3.org/2000/svg" width="288" height="288" version="1.0" viewBox="0 0 256 256"><path d="M110 1280 l0 -1170 1170 0 1170 0 0 1170 0 1170 -1170 0 -1170 0 0-1170z m990 525 l55 -55 -249 -249 -250 -250 171 -178 c95 -98 203 -209 242
-248 39 -38 71 -74 71 -80 0 -6 -23 -33 -50 -60 l-50 -50 -285 285 c-157 157
-288 294 -291 305 -3 12 0 33 6 49 9 25 555 586 570 586 3 0 30 -25 60 -55z
m755 -227 c153 -156 281 -291 284 -302 18 -47 -2 -71 -285 -356 l-283 -285
-58 58 -58 57 250 250 250 250 -250 250 -250 250 55 55 c30 30 57 55 61 55 4
0 132 -127 284 -282z m-662 -269 c46 -50 27 -128 -38 -149 -44 -14 -67 -7
-100 31 -31 37 -32 77 -4 113 42 53 95 55 142 5z m347 12 c36 -25 41 -103 9
-137 -29 -31 -70 -39 -108 -20 -36 19 -51 44 -51 86 0 43 16 69 53 85 36 16
60 12 97 -14z" transform="matrix(.1 0 0 -.1 0 256)" fill="#7289da" class="color000 svgShape"></path></svg></g></svg>