<?xml version="1.0" encoding="UTF-8" standalone="no"?>
<svg id="Layer_1" data-name="Layer 1" class="logo align-self-center" xmlns="http://www.w3.org/2000/svg" viewBox="0 0 433.78 70.59">
    <defs>
        <style>.cls-1 {
                fill: #231f20 !important;
            }
            .cls-2 {
                fill: #f8981d !important;
            }</style>
    </defs>
    <path class="cls-1" d="M133.05,74.29l3.5,3.5a32.87,32.87,0,0,1-25.16,11.26c-19.63,0-33.62-15.54-33.62-35.16s14-35.17,33.62-35.17a32.31,32.31,0,0,1,24.19,10.4l-3.6,3.3a27.32,27.32,0,0,0-20.59-8.74C94.48,23.68,83,37.18,83,53.89S94.48,84.1,111.39,84.1A28.08,28.08,0,0,0,133.05,74.29Z" transform="translate(-18.61 -18.72)"></path>
    <path class="cls-1" d="M145.25,18.72h4.55V88.94h-4.73Z" transform="translate(-18.61 -18.72)"></path>
    <path class="cls-1" d="M162.55,29.32a3.7,3.7,0,1,1-3.7,3.7A3.7,3.7,0,0,1,162.55,29.32Z" transform="translate(-18.61 -18.72)"></path>
    <rect class="cls-1" x="141.53" y="25.67" width="4.81" height="44.56"></rect>
    <path class="cls-1" d="M208.14,77.54l3.33,3.15a21.8,21.8,0,0,1-17.31,8.61c-12.59,0-21.76-10-21.76-22.22s9.17-22.22,21.76-22.22a21.84,21.84,0,0,1,16.85,8l-3.43,3.06a17.15,17.15,0,0,0-13.42-6.3c-10.09,0-16.76,8.15-16.76,17.5s6.67,17.5,16.76,17.5A17.38,17.38,0,0,0,208.14,77.54Z" transform="translate(-18.61 -18.72)"></path>
    <polygon class="cls-1" points="204.52 49.49 204.52 70.23 199.79 70.23 199.79 0.01 204.52 0.01 204.52 47.76 225.26 28.74 231.9 28.74 210.34 48.58 234 70.23 226.99 70.23 204.52 49.49"></polygon>
    <circle class="cls-2" cx="304.09" cy="12.84" r="5.56"></circle>
    <rect class="cls-2" x="298.53" y="25.67" width="11.11" height="44.56"></rect>
    <path class="cls-2" d="M378.56,66.54c0,.81,0,2.42-.09,4H346.72c.8,3.77,5.2,8.61,11.93,8.61a17.11,17.11,0,0,0,11.66-4.31L375.69,83a27.23,27.23,0,0,1-17,6.1c-12.92,0-22.88-9.87-22.88-22.34s9.06-22.33,21.35-22.33C368.78,44.39,378.56,53.45,378.56,66.54Zm-10.77-3.76c-.18-3.68-3.58-8.62-10.67-8.62-6.91,0-10.05,4.85-10.4,8.62Z" transform="translate(-18.61 -18.72)"></path>
    <polygon class="cls-2" points="41.45 35.07 0 0 0 70.15 41.45 35.07"></polygon>
    <polygon class="cls-2" points="385.92 70 379.5 70 359.86 25.63 373.83 25.63 382.99 49.61 392.71 25.63 401.02 25.63 410.65 49.61 419.81 25.63 433.78 25.63 414.24 70 407.72 70 396.87 46.3 385.92 70"></polygon>
    <polygon class="cls-2" points="265.7 70.35 259.7 70.35 226.11 0.01 243.12 0.01 262.54 44.19 280.62 0.01 297.53 0.01 265.7 70.35"></polygon>
</svg>