<?xml version="1.0" encoding="UTF-8" standalone="no"?>
<svg width="29" height="29" viewBox="0 0 29 29" fill="none" xmlns="http://www.w3.org/2000/svg" aria-label="Flipgrid Logo">
<path fill-rule="evenodd" clip-rule="evenodd" d="M1.87086 7.83008C2.72576 4.57488 4.58363 1.8393 7.4198 0.731096C10.1233 -0.440891 13.7678 -0.0596081 16.6351 0.86288C19.5016 1.79944 21.4037 3.29831 22.5305 5.35714C23.6518 7.40894 24.0317 10.1093 23.439 12.9987C22.8462 15.9111 21.2528 18.9192 18.7002 21.1042C16.1527 23.3051 12.5194 24.7059 9.31772 23.4791C6.04991 22.2691 3.83862 19.6011 2.54789 16.8505C1.29394 14.046 0.974978 11.2354 1.87086 7.83008Z" fill="#F25022"></path>
<path fill-rule="evenodd" clip-rule="evenodd" d="M5.85253 18.5963C4.97621 15.3467 5.22765 12.0418 7.13349 9.65377C8.89311 7.27744 12.2387 5.772 15.1796 5.12715C18.1271 4.49496 20.5186 4.83497 22.5166 6.05058C24.5063 7.2629 26.176 9.41037 27.097 12.2107C28.0292 15.0311 28.1424 18.4387 27.0165 21.6166C25.9031 24.8052 23.4516 27.8479 20.0702 28.3981C16.6394 28.9955 13.3995 27.7987 10.9163 26.0667C8.43866 24.2701 6.76657 21.9964 5.85253 18.5963Z" fill="#EF03E7"></path>
<path fill-rule="evenodd" clip-rule="evenodd" d="M10.1968 4.887C13.4562 4.06909 16.7478 4.39316 19.089 6.37226C21.4218 8.2027 22.8527 11.6197 23.4334 14.609C24.0019 17.6049 24.4927 19.6435 23.2378 21.639C21.9866 23.6266 18.4073 25.5447 15.5944 26.417C12.7615 27.3011 9.88203 27.4427 6.73622 26.2365C3.57922 25.0429 0.596378 22.4982 0.11957 19.0653C-0.404268 15.5817 0.858064 12.3288 2.63818 9.85305C4.48255 7.38339 6.78604 5.74007 10.1968 4.887Z" fill="#FFB900"></path>
<path fill-rule="evenodd" clip-rule="evenodd" d="M17.8977 24.9172C14.5437 25.4631 11.8673 24.3629 9.43107 22.5282C7.01164 20.8408 5.95047 18.1512 5.20732 15.2135C4.47627 12.2687 4.73004 9.84974 5.86619 7.79606C6.99907 5.75083 9.07114 3.99496 11.8179 2.96977C14.5838 1.93238 17.961 1.69882 21.1538 2.72074C24.3569 3.72952 27.4618 6.09037 28.1258 9.47455C28.8396 12.907 27.7654 16.2096 26.1338 18.7698C24.438 21.3281 21.3503 24.3582 17.8977 24.9172Z" fill="#00A4EF"></path>
<path fill-rule="evenodd" clip-rule="evenodd" d="M14.916 3.08602C18.2592 3.07477 21.3636 4.17453 23.1605 6.64654C24.9839 8.97316 25.5618 12.6176 25.4193 15.6458C25.2628 18.6769 24.4163 20.9407 22.7335 22.5699C21.0558 24.1916 18.466 25.2347 15.5418 25.4058C12.5958 25.5831 9.29861 24.8112 6.54206 22.8935C3.77155 20.9852 1.48808 17.813 1.83591 14.381C2.15068 10.8885 4.1366 8.04645 6.44102 6.07907C8.8055 4.13326 11.4186 3.09493 14.916 3.08602Z" fill="#03F119"></path>
<path fill-rule="evenodd" clip-rule="evenodd" d="M20.6448 14.2888V14.2893C20.6448 15.5814 19.6046 16.6291 18.3218 16.6295H16.5612V18.3826C16.5612 19.6911 15.508 20.7524 14.2084 20.7524H14.2079C12.9088 20.7524 11.8551 19.6915 11.8551 18.3826C11.8551 18.3821 11.8551 18.3821 11.8551 18.3821V16.6094H10.0344C8.75116 16.6089 7.71094 15.5617 7.71094 14.2691V14.2687C7.71094 12.9762 8.75116 11.9285 10.0344 11.9285H11.8448V10.1745C11.8453 8.86553 12.8986 7.80469 14.1981 7.80469H14.1986C15.4982 7.80469 16.5514 8.86553 16.5514 10.1745V11.9481H18.3213C19.6046 11.9486 20.6448 12.9963 20.6448 14.2888Z" fill="white"></path></svg>