<?xml version="1.0" encoding="UTF-8" standalone="no"?>
<svg xmlns="http://www.w3.org/2000/svg" xmlns:xlink="http://www.w3.org/1999/xlink" xmlns:serif="http://www.serif.com/" width="100%" height="100%" viewBox="0 0 567 229" version="1.1" xml:space="preserve" style="fill-rule:evenodd;clip-rule:evenodd;stroke-linejoin:round;stroke-miterlimit:2;"> <g transform="matrix(1,0,0,1,-137.1,-183.2)"> <path d="M690,214.1C697.7,214.1 703.9,207.8 703.9,200.2C703.9,192.5 697.6,186.3 690,186.3C682.3,186.3 676.1,192.6 676.1,200.2C676.1,207.8 682.3,214.1 690,214.1" style="fill:rgb(0,126,255);fill-rule:nonzero;"/> <path d="M383.1,214.1C390.8,214.1 397,207.8 397,200.2C397,192.5 390.7,186.3 383.1,186.3C375.4,186.3 369.2,192.6 369.2,200.2C369.2,207.8 375.5,214.1 383.1,214.1" style="fill:rgb(0,126,255);fill-rule:nonzero;"/> <path d="M383.1,247C375.4,247 369.4,253.3 369.4,260.9L369.4,398C369.4,405.7 375.4,411.9 383.1,411.9C390.8,411.9 397.2,405.6 397.2,398L397.2,260.9C397.3,253.3 390.8,247 383.1,247" style="fill:rgb(0,126,255);fill-rule:nonzero;"/> <path d="M316.9,248.7C310.3,244.9 301.7,247.2 297.9,253.8L230.4,370.7L163,254C159.2,247.4 150.6,245.1 144,248.9C139.5,251.5 137.1,256.2 137.1,261C137.1,263.4 137.7,265.7 139,267.9L217.9,404.5C221,409.8 227,412.3 232.7,411.2C237,410.7 240.9,408.3 243.2,404.4L322,267.7C325.9,261.1 323.6,252.6 316.9,248.7" style="fill:rgb(0,126,255);fill-rule:nonzero;"/> <path d="M623.8,248.7C617.2,244.9 608.6,247.2 604.8,253.8L537.3,370.7L469.9,254C466.1,247.4 457.5,245.1 450.9,248.9C444.3,252.7 442,261.3 445.8,267.9L524.7,404.5C527.8,409.8 533.8,412.3 539.6,411.2C543.9,410.7 547.8,408.3 550.1,404.4L628.9,267.8C632.7,261.1 630.4,252.6 623.8,248.7" style="fill:rgb(0,126,255);fill-rule:nonzero;"/> <path d="M689.5,247C681.8,247 675.6,253.3 675.6,260.9L675.6,398C675.6,405.7 681.9,411.9 689.5,411.9C697.2,411.9 703.5,405.6 703.5,398L703.5,260.9C703.4,253.3 697.1,247 689.5,247" style="fill:rgb(0,126,255);fill-rule:nonzero;"/> <path d="M220.9,273.5C218.3,274.4 215.5,272.6 214.8,269.6C214.1,266.6 215.6,263.4 218.2,262.5C220.2,261.8 222.4,261.3 224.5,261C226.7,260.6 228.8,260.5 231,260.5C233.2,260.5 235.3,260.7 237.5,261C239.7,261.4 241.8,261.9 243.8,262.5C246.4,263.4 248,266.5 247.2,269.6C246.5,272.6 243.7,274.4 241.1,273.5C239.4,273 237.8,272.5 236.1,272.3C234.5,272 232.8,271.9 231,271.9C229.2,271.9 227.5,272 225.9,272.3C224.2,272.5 222.5,272.9 220.9,273.5M207.2,241.8C204.3,243.1 201,241.4 199.9,238C198.8,234.6 200.3,230.9 203.2,229.6C207.6,227.7 212.2,226.2 216.9,225.2C221.6,224.2 226.3,223.7 231,223.7C236.2,223.7 241.4,224.3 246.6,225.5C251.7,226.7 256.8,228.5 261.6,230.9C264.5,232.3 265.8,236.1 264.6,239.4C263.4,242.7 260.1,244.3 257.2,242.9C253,240.9 248.8,239.3 244.4,238.3C240.1,237.3 235.6,236.8 231,236.8C226.9,236.8 222.8,237.2 218.9,238C214.9,238.9 211,240.2 207.2,241.8M186.8,209.6C183.6,211.4 179.8,209.8 178.3,206.2C176.8,202.5 178.1,198.2 181.3,196.4C189,192.1 197.1,188.8 205.5,186.6C213.9,184.4 222.4,183.2 231,183.2C239.4,183.2 247.7,184.3 256,186.4C264.2,188.5 272.1,191.7 279.7,195.8C282.9,197.5 284.2,201.9 282.7,205.6C281.2,209.3 277.4,210.8 274.2,209.1C267.4,205.4 260.3,202.6 253.1,200.7C245.9,198.8 238.5,197.9 230.9,197.9C223.2,197.9 215.6,198.9 208.3,200.9C200.9,202.9 193.7,205.8 186.8,209.6" style="fill:rgb(0,126,255);fill-rule:nonzero;"/> </g> </svg>